# xmcd CD database file
# Generated: Sat Jul 13 17:33:46 2002 by KSCD
# 
# Track frame offsets:
#       150
#       2828
#       8945
#       11917
#       16348
#       18946
#       21223
#       24284
#       26479
#       29446
#       31275
#       33414
#       35449
#       39152
#       40737
#       42554
#       44111
#       46709
#       50924
#       52160
#       53735
#       55407
#       56593
#       57893
#       59806
#       62041
#       63338
#       64447
#       69751
#       71048
#       72674
#       74216
#       76813
#       78813
#       81585
#       82824
#       84356
#       85829
#       87180
#       88419
#       89682
#       91256
#       96109
#       101971
#       102876
#       104366
#       106155
#       108648
#       110770
#       112971
#       115380
#       116530
#       119322
#       120533
#       123374
#       124222
#       126603
#       127726
#       134128
#       135646
#       136718
#
# Disc length: 1866 seconds
#
# Revision: 1
# Processed by: cddbd v1.4PL0 Copyright (c) Steve Scherf et al.
# Submitted via: Kscd 1.3.3
#
DISCID=6c07483d
DTITLE=Earl Scruggs - Earl Scruggs and the Five String Banjo (Examples)
DYEAR=1900
DGENRE=
TTITLE0=Introduction
TTITLE1=Tuning notes
TTITLE2=Basic rhythm
TTITLE3=Basic right hand exercise
TTITLE4=Alternating thumb pattern
TTITLE5=Mixing of basic rhythm
TTITLE6=Basic sliding 3rd string
TTITLE7=Basic sliding 4th string
TTITLE8=Sliding with basic rhythm
TTITLE9=Sliding with alternating thumb pattern
TTITLE10=Mixing sliding, basic rhythm, alternating thumb pattern
TTITLE11=Chorus of "Cripple Creek"
TTITLE12=Hammering on
TTITLE13=Hammering into basic rhythm
TTITLE14=Forward roll and hammering onto 4th string
TTITLE15=Mixing hammering and sliding into basic rhythm with alt thumb pattern
TTITLE16=Forward roll modification and adding a C chord
TTITLE17=Sliding and hammering in "Cripple Creek"
TTITLE18=Pulling off on 1st string
TTITLE19=Hammer pull-offs using left hand
TTITLE20=21 Pulling off in basic rhythm
TTITLE21=Push off
TTITLE22=Push off and alternating thumb pattern
TTITLE23=Another technique of sliding and alternating thumb pattern
TTITLE24=Advanced version of "Cripple Creek"
TTITLE25=Variation of forward roll
TTITLE26=Another roll in "Cripple Creek"
TTITLE27=Four forward roll patterns
TTITLE28=Reverse roll
TTITLE29=Forward and reverse roll as used in "The Ballad of Jed Clampett"
TTITLE30=Combination of basic rhythm alternating thumb and reverse roll
TTITLE31=Backward roll using right hand
TTITLE32=Re-tune to C tuning and 1st line of "Home Sweet Home"
TTITLE33=Re-tune to G tuning and advanced variation of reverse roll
TTITLE34=Adding a slide on the 3rd string
TTITLE35=Forward roll putting emphasis on the 2nd string with thumb
TTITLE36=Forward roll with hammer onto 2nd string
TTITLE37=Double hammer on 2nd string and adding 1st string
TTITLE38=Hammering a pull-off in a reverse roll
TTITLE39=Same exercise as previous one adding fretting of 1st string
TTITLE40=Oops same as #40
TTITLE41=Basic waltz, rolling waltz, and adding a slide
TTITLE42=Tuning Scruggs tuners to G and D
TTITLE43=Tuning procedure in "Flint Hill Special"
TTITLE44=Another example from "Flint Hill Special"
TTITLE45=Second string tuner exercise
TTITLE46=Harmonic chimes and "Bugle Call"
TTITLE47=Vamping in full chord positions
TTITLE48=Vamping and rhythm
TTITLE49=Chord changing with rhythm
TTITLE50=Variation of rhythm
TTITLE51=Vamping rhythm and muting
TTITLE52=Vamping adding hammer
TTITLE53=Vamping with bass string runs Part 1 and Part 2
TTITLE54=Vamping an ending
TTITLE55=C6th chord forward roll
TTITLE56=Backup lick as in "Cabin in the Carolines"
TTITLE57=Boogie woogie backup runs
TTITLE58=Backup run with 1st and 2nd strings while muting other strings
TTITLE59=Another fill in run
TTITLE60=Choking with whole and half notes, and ending.
EXTD=
EXTT0=
EXTT1=
EXTT2=
EXTT3=
EXTT4=
EXTT5=
EXTT6=
EXTT7=
EXTT8=
EXTT9=
EXTT10=
EXTT11=
EXTT12=
EXTT13=
EXTT14=
EXTT15=
EXTT16=
EXTT17=
EXTT18=
EXTT19=
EXTT20=
EXTT21=
EXTT22=
EXTT23=
EXTT24=
EXTT25=
EXTT26=
EXTT27=
EXTT28=
EXTT29=
EXTT30=
EXTT31=
EXTT32=
EXTT33=
EXTT34=
EXTT35=
EXTT36=
EXTT37=
EXTT38=
EXTT39=
EXTT40=
EXTT41=
EXTT42=
EXTT43=
EXTT44=
EXTT45=
EXTT46=
EXTT47=
EXTT48=
EXTT49=
EXTT50=
EXTT51=
EXTT52=
EXTT53=
EXTT54=
EXTT55=
EXTT56=
EXTT57=
EXTT58=
EXTT59=
EXTT60=
PLAYORDER=
